<svg width="60" height="70" viewBox="0 0 60 70" fill="none" xmlns="http://www.w3.org/2000/svg">
<path d="M29.8956 9.7454V3.77346C29.8956 0.418393 25.8423 -1.26183 23.4717 1.11056L13.7413 10.8484C12.2717 12.3191 12.2717 14.7035 13.7413 16.1742L23.4717 25.9121C25.8423 28.2844 29.8956 26.6042 29.8956 23.2492V17.2772C35.8838 17.2772 41.6267 19.6578 45.8609 23.8953C50.0952 28.1328 52.4739 33.88 52.4739 39.8727C52.4739 45.8654 50.0952 51.6126 45.8609 55.8501C41.6267 60.0876 35.8838 62.4682 29.8956 62.4682C23.9075 62.4682 18.1646 60.0876 13.9304 55.8501C10.5896 52.5067 8.4038 48.2235 7.63016 43.6214C7.28536 41.5703 5.63259 39.8727 3.55431 39.8727C1.47604 39.8727 -0.23302 41.5653 0.0260522 43.6289C0.855291 50.2342 3.85499 56.4187 8.60864 61.1759C14.2543 66.8259 21.9115 70 29.8956 70C37.8798 70 45.537 66.8259 51.1827 61.1759C56.8283 55.526 60 47.863 60 39.8727C60 31.8824 56.8283 24.2194 51.1827 18.5695C45.537 12.9195 37.8798 9.7454 29.8956 9.7454Z" fill="#494949"/>
</svg>
