<svg width="92" height="92" viewBox="0 0 92 92" fill="none" xmlns="http://www.w3.org/2000/svg">
<path d="M68.75 83.9168C65.5903 83.9168 62.9045 82.8109 60.6927 80.5991C58.4809 78.3873 57.375 75.7016 57.375 72.5418C57.375 72.0995 57.4066 71.6407 57.4698 71.1655C57.533 70.6902 57.6278 70.2643 57.7542 69.8877L31.0229 54.3418C29.9486 55.2897 28.7479 56.0329 27.4208 56.5713C26.0938 57.1097 24.7035 57.3777 23.25 57.3752C20.0903 57.3752 17.4045 56.2693 15.1927 54.0575C12.9809 51.8456 11.875 49.1599 11.875 46.0002C11.875 42.8404 12.9809 40.1547 15.1927 37.9429C17.4045 35.7311 20.0903 34.6252 23.25 34.6252C24.7035 34.6252 26.0938 34.8944 27.4208 35.4328C28.7479 35.9712 29.9486 36.7131 31.0229 37.6585L57.7542 22.1127C57.6278 21.7335 57.533 21.3076 57.4698 20.8349C57.4066 20.3622 57.375 19.9034 57.375 19.4585C57.375 16.2988 58.4809 13.613 60.6927 11.4012C62.9045 9.1894 65.5903 8.0835 68.75 8.0835C71.9097 8.0835 74.5955 9.1894 76.8073 11.4012C79.0191 13.613 80.125 16.2988 80.125 19.4585C80.125 22.6182 79.0191 25.304 76.8073 27.5158C74.5955 29.7276 71.9097 30.8335 68.75 30.8335C67.2965 30.8335 65.9062 30.5656 64.5792 30.0297C63.2521 29.4938 62.0514 28.7506 60.9771 27.8002L34.2458 43.346C34.3722 43.7252 34.467 44.1524 34.5302 44.6276C34.5934 45.1028 34.625 45.5603 34.625 46.0002C34.625 46.4425 34.5934 46.9013 34.5302 47.3765C34.467 47.8518 34.3722 48.2777 34.2458 48.6543L60.9771 64.2002C62.0514 63.2522 63.2521 62.5103 64.5792 61.9745C65.9062 61.4386 67.2965 61.1694 68.75 61.1668C71.9097 61.1668 74.5955 62.2727 76.8073 64.4845C79.0191 66.6963 80.125 69.3821 80.125 72.5418C80.125 75.7016 79.0191 78.3873 76.8073 80.5991C74.5955 82.8109 71.9097 83.9168 68.75 83.9168Z" fill="#494949"/>
</svg>
