<svg width="120" height="120" viewBox="0 0 120 120" fill="none" xmlns="http://www.w3.org/2000/svg">
<rect width="120" height="120" fill="white"/>
<path fill-rule="evenodd" clip-rule="evenodd" d="M60 10C62.7614 10 65 12.2386 65 15V26.6178C79.6371 28.7915 91.2085 40.3629 93.3822 55H105C107.761 55 110 57.2386 110 60C110 62.7614 107.761 65 105 65H93.3822C91.2085 79.6371 79.6371 91.2085 65 93.3822V105C65 107.761 62.7614 110 60 110C57.2386 110 55 107.761 55 105V93.3822C40.3629 91.2085 28.7915 79.6371 26.6178 65H15C12.2386 65 10 62.7614 10 60C10 57.2386 12.2386 55 15 55H26.6178C28.7915 40.3629 40.3629 28.7915 55 26.6178V15C55 12.2386 57.2386 10 60 10ZM36.9051 65C38.8518 74.0346 45.9654 81.1482 55 83.0949V65L36.9051 65ZM55 55L36.9051 55C38.8518 45.9654 45.9654 38.8518 55 36.9051V55ZM65 65V83.0949C74.0346 81.1482 81.1482 74.0346 83.0949 65L65 65ZM83.0949 55L65 55V36.9051C74.0346 38.8518 81.1482 45.9654 83.0949 55Z" fill="#E7595B"/>
<path d="M47.4363 72.3025C44.8113 72.3025 42.4634 71.7775 40.3926 70.7275C38.3217 69.6775 36.703 68.2192 35.5363 66.3525C34.3988 64.4858 33.8301 62.3712 33.8301 60.0087C33.8301 57.6462 34.3988 55.5462 35.5363 53.7087C36.703 51.8421 38.3217 50.3983 40.3926 49.3775C42.4634 48.3275 44.8113 47.8025 47.4363 47.8025C50.1197 47.8025 52.4384 48.3858 54.3926 49.5525C54.6053 49.6763 54.8113 49.8055 55.0105 49.94V55.0024H49.7945C49.086 54.6066 48.2854 54.4087 47.3926 54.4087C45.9051 54.4087 44.6655 54.9046 43.6738 55.8962C42.7113 56.8879 42.2301 58.2587 42.2301 60.0087C42.2301 61.7879 42.7113 63.1879 43.6738 64.2087C44.6655 65.2004 45.9051 65.6962 47.3926 65.6962C48.3716 65.6962 49.2398 65.4583 49.9971 64.9824H55.0018V70.2057C54.8053 70.3409 54.6022 70.4711 54.3926 70.5962C52.4384 71.7337 50.1197 72.3025 47.4363 72.3025Z" fill="#FEBD59"/>
<path d="M73.6692 72.3025C71.0442 72.3025 68.6963 71.7775 66.6255 70.7275C64.5547 69.6775 62.9359 68.2192 61.7692 66.3525C60.6317 64.4858 60.063 62.3712 60.063 60.0087C60.063 57.6462 60.6317 55.5462 61.7692 53.7087C62.9359 51.8421 64.5547 50.3983 66.6255 49.3775C68.6963 48.3275 71.0442 47.8025 73.6692 47.8025C76.3526 47.8025 78.6713 48.3858 80.6255 49.5525C80.8339 49.6738 81.2592 49.9612 81.4546 50.0928C81.4546 50.0928 82.0787 51.5074 82.411 52.4983C82.7319 53.4549 83.1001 54.9893 83.1001 54.9893H76.0039C75.3012 54.6023 74.5084 54.4087 73.6255 54.4087C72.138 54.4087 70.8984 54.9046 69.9067 55.8962C68.9442 56.8879 68.463 58.2587 68.463 60.0087C68.463 61.7879 68.9442 63.1879 69.9067 64.2087C70.8984 65.2004 72.138 65.6962 73.6255 65.6962C74.5721 65.6962 75.4552 65.4374 76.1946 64.9925H83.097C82.5706 67.2521 82.2417 68.0518 81.4054 70.0859C81.1563 70.2644 80.8964 70.4345 80.6255 70.5962C78.6713 71.7337 76.3526 72.3025 73.6692 72.3025Z" fill="#FEBD59"/>
</svg>
