<svg width="844" height="633" viewBox="0 0 844 633" fill="none" xmlns="http://www.w3.org/2000/svg">
<path d="M317 20.7579C317 9.29362 326.294 0 337.758 0H789.242C800.706 0 810 9.29363 810 20.7579V472.242C810 483.706 800.706 493 789.242 493H337.758C326.294 493 317 483.706 317 472.242V20.7579Z" fill="#FFF7D0"/>
<path fill-rule="evenodd" clip-rule="evenodd" d="M789.242 13.8386H337.758C333.936 13.8386 330.839 16.9365 330.839 20.7579V472.242C330.839 476.064 333.936 479.161 337.758 479.161H789.242C793.064 479.161 796.161 476.064 796.161 472.242V20.7579C796.161 16.9365 793.064 13.8386 789.242 13.8386ZM337.758 0C326.294 0 317 9.29362 317 20.7579V472.242C317 483.706 326.294 493 337.758 493H789.242C800.706 493 810 483.706 810 472.242V20.7579C810 9.29363 800.706 0 789.242 0H337.758Z" fill="#494949"/>
<path d="M365.343 207.286C365.343 197.489 375.244 190.794 384.336 194.443L495.959 239.235C499.28 240.567 501.955 243.134 503.424 246.396L558.943 369.691C563.067 378.849 556.368 389.211 546.325 389.211H379.182C371.539 389.211 365.343 383.016 365.343 375.373V207.286Z" fill="#BBCB69"/>
<path fill-rule="evenodd" clip-rule="evenodd" d="M490.806 252.078L379.182 207.286V375.373H546.325L490.806 252.078ZM384.336 194.443C375.244 190.794 365.343 197.489 365.343 207.286V375.373C365.343 383.016 371.539 389.211 379.182 389.211H546.325C556.368 389.211 563.067 378.849 558.943 369.691L503.424 246.396C501.955 243.134 499.28 240.567 495.959 239.235L384.336 194.443Z" fill="#494949"/>
<path d="M531.953 195.659C534.017 190.332 539.143 186.821 544.856 186.821H747.818C755.461 186.821 761.656 193.017 761.656 200.66V370.011C761.656 379.456 752.403 386.126 743.442 383.139L505.577 303.851C498.08 301.352 494.194 293.091 497.05 285.722L531.953 195.659Z" fill="#FAD5CD"/>
<path fill-rule="evenodd" clip-rule="evenodd" d="M747.818 200.66H544.856L509.954 290.722L747.818 370.011V200.66ZM544.856 186.821C539.143 186.821 534.017 190.332 531.953 195.659L497.05 285.722C494.194 293.091 498.08 301.352 505.577 303.851L743.442 383.139C752.403 386.126 761.656 379.456 761.656 370.011V200.66C761.656 193.017 755.461 186.821 747.818 186.821H544.856Z" fill="#494949"/>
<path d="M412.02 199.198C409.17 192.106 412.608 184.047 419.7 181.197L599.465 108.95C606.557 106.1 614.616 109.538 617.466 116.63L630.367 148.731C633.218 155.822 629.779 163.882 622.688 166.732L442.922 238.979C435.83 241.829 427.771 238.391 424.921 231.299L412.02 199.198Z" fill="#FEBD59"/>
<path fill-rule="evenodd" clip-rule="evenodd" d="M604.626 121.79L424.86 194.037L437.761 226.138L617.527 153.891L604.626 121.79ZM419.7 181.197C412.608 184.047 409.17 192.106 412.02 199.198L424.921 231.299C427.771 238.391 435.83 241.829 442.922 238.979L622.688 166.732C629.779 163.882 633.218 155.822 630.367 148.731L617.466 116.63C614.616 109.538 606.557 106.1 599.465 108.95L419.7 181.197Z" fill="#494949"/>
<path d="M446.714 277.915C448.167 273.44 454.498 273.44 455.951 277.915L459.329 288.309C459.979 290.31 461.843 291.664 463.947 291.664H474.876C479.581 291.664 481.537 297.685 477.731 300.45L468.889 306.874C467.187 308.11 466.475 310.303 467.125 312.304L470.502 322.697C471.956 327.172 466.835 330.893 463.029 328.127L454.187 321.703C452.485 320.467 450.18 320.467 448.478 321.703L439.636 328.127C435.83 330.893 430.709 327.172 432.163 322.697L435.54 312.304C436.19 310.303 435.478 308.11 433.776 306.874L424.934 300.45C421.128 297.685 423.084 291.664 427.789 291.664H438.718C440.822 291.664 442.686 290.31 443.336 288.309L446.714 277.915Z" fill="#ECEAC1"/>
<path fill-rule="evenodd" clip-rule="evenodd" d="M443.336 288.309C442.686 290.31 440.822 291.664 438.718 291.664H427.789C423.084 291.664 421.128 297.685 424.934 300.45L433.776 306.874C435.478 308.11 436.19 310.303 435.54 312.304L432.163 322.697L421.545 319.247L423.506 313.211L418.372 309.482C405.816 300.359 412.269 280.499 427.789 280.499H434.135L436.095 274.464C440.891 259.704 461.773 259.704 466.569 274.464L468.53 280.499H474.876C490.396 280.499 496.849 300.359 484.293 309.482L479.159 313.211L481.12 319.247C485.916 334.007 469.022 346.281 456.466 337.159L451.332 333.429L446.199 337.159C433.643 346.281 416.749 334.007 421.545 319.247L432.163 322.697C430.709 327.172 435.83 330.893 439.636 328.127L448.478 321.703C450.18 320.467 452.485 320.467 454.187 321.703L463.029 328.127C466.835 330.893 471.956 327.172 470.502 322.697L467.125 312.304C466.475 310.303 467.187 308.11 468.889 306.874L477.731 300.45C481.537 297.685 479.581 291.664 474.876 291.664H463.947C461.843 291.664 459.979 290.31 459.329 288.309L455.951 277.915C454.498 273.44 448.167 273.44 446.714 277.915L443.336 288.309Z" fill="#494949"/>
<path d="M531.884 174.712C531.884 180.708 527.023 185.568 521.028 185.568C515.032 185.568 510.171 180.708 510.171 174.712C510.171 168.717 515.032 163.856 521.028 163.856C527.023 163.856 531.884 168.717 531.884 174.712Z" fill="#C9B1FD"/>
<path fill-rule="evenodd" clip-rule="evenodd" d="M541.534 174.713C541.534 186.038 532.353 195.219 521.028 195.219C509.702 195.219 500.521 186.038 500.521 174.713C500.521 163.388 509.702 154.207 521.028 154.207C532.353 154.207 541.534 163.388 541.534 174.713ZM521.028 185.568C527.023 185.568 531.884 180.708 531.884 174.712C531.884 168.717 527.023 163.856 521.028 163.856C515.032 163.856 510.171 168.717 510.171 174.712C510.171 180.708 515.032 185.568 521.028 185.568Z" fill="#494949"/>
<path d="M621.452 238.059C623.798 233.996 629.662 233.996 632.008 238.059L659.15 285.071C661.496 289.134 658.564 294.212 653.873 294.212H599.588C594.896 294.212 591.964 289.134 594.31 285.071L621.452 238.059Z" fill="#03989E"/>
<path fill-rule="evenodd" clip-rule="evenodd" d="M642.231 232.156L669.373 279.169C676.263 291.101 667.651 306.017 653.873 306.017H599.588C585.809 306.017 577.197 291.101 584.087 279.169L611.229 232.156C618.118 220.224 635.342 220.224 642.231 232.156ZM632.008 238.059C629.662 233.996 623.798 233.996 621.452 238.059L594.31 285.071C591.964 289.134 594.896 294.212 599.588 294.212H653.873C658.564 294.212 661.496 289.134 659.15 285.071L632.008 238.059Z" fill="#494949"/>
<path d="M284 233.478C284 222.399 292.981 213.418 304.06 213.418H823.94C835.019 213.418 844 222.399 844 233.478V612.94C844 624.019 835.019 633 823.94 633H304.06C292.981 633 284 624.019 284 612.94V233.478Z" fill="#E6BB76"/>
<path fill-rule="evenodd" clip-rule="evenodd" d="M823.94 226.791H304.06C300.367 226.791 297.373 229.785 297.373 233.478V612.94C297.373 616.633 300.367 619.627 304.06 619.627H823.94C827.633 619.627 830.627 616.633 830.627 612.94V233.478C830.627 229.785 827.633 226.791 823.94 226.791ZM304.06 213.418C292.981 213.418 284 222.399 284 233.478V612.94C284 624.019 292.981 633 304.06 633H823.94C835.019 633 844 624.019 844 612.94V233.478C844 222.399 835.019 213.418 823.94 213.418H304.06Z" fill="#494949"/>
<path fill-rule="evenodd" clip-rule="evenodd" d="M518.03 256.881C518.03 253.188 521.024 250.194 524.716 250.194H618.328C622.021 250.194 625.015 253.188 625.015 256.881C625.015 260.573 622.021 263.567 618.328 263.567H524.716C521.024 263.567 518.03 260.573 518.03 256.881Z" fill="#494949"/>
<path d="M272 352.596C272 347.848 268.152 344 263.404 344H140.595C135.848 344 132 347.848 132 352.596V475.404C132 480.152 135.848 484 140.595 484H263.404C268.152 484 272 480.152 272 475.404V352.596Z" fill="#E7595B"/>
<path fill-rule="evenodd" clip-rule="evenodd" d="M263.404 352.596L140.595 352.596V475.404H263.404V352.596ZM263.404 344C268.152 344 272 347.848 272 352.596V475.404C272 480.152 268.152 484 263.404 484H140.595C135.848 484 132 480.152 132 475.404V352.596C132 347.848 135.848 344 140.595 344H263.404Z" fill="#494949"/>
<path d="M204.84 397.721C203.937 394.942 200.005 394.942 199.102 397.721L197.004 404.177C196.6 405.42 195.442 406.261 194.135 406.261H187.347C184.425 406.261 183.21 410 185.574 411.718L191.066 415.708C192.123 416.476 192.565 417.838 192.162 419.081L190.064 425.537C189.161 428.316 192.342 430.627 194.706 428.909L200.198 424.919C201.255 424.151 202.687 424.151 203.744 424.919L209.235 428.909C211.6 430.627 214.78 428.316 213.877 425.537L211.78 419.081C211.376 417.838 211.818 416.476 212.876 415.708L218.367 411.718C220.731 410 219.516 406.261 216.594 406.261H209.806C208.499 406.261 207.341 405.42 206.937 404.177L204.84 397.721Z" fill="#FEBD59"/>
<path fill-rule="evenodd" clip-rule="evenodd" d="M191.289 399.327L192.507 395.578C195.486 386.41 208.456 386.41 211.435 395.578L212.653 399.327H216.594C226.234 399.327 230.242 411.662 222.443 417.328L219.255 419.645L220.473 423.394C223.452 432.562 212.958 440.185 205.159 434.519L201.971 432.203L198.782 434.519C190.983 440.186 180.49 432.562 183.469 423.394L184.687 419.645L181.498 417.328C173.699 411.662 177.707 399.327 187.347 399.327H191.289ZM197.004 404.177C196.6 405.42 195.442 406.261 194.135 406.261H187.347C184.425 406.261 183.21 410 185.574 411.718L191.066 415.708C192.123 416.476 192.565 417.838 192.162 419.081L190.064 425.537C189.161 428.316 192.342 430.627 194.706 428.909L200.198 424.919C201.255 424.151 202.687 424.151 203.744 424.919L209.235 428.909C211.6 430.627 214.78 428.316 213.877 425.537L211.78 419.081C211.376 417.838 211.818 416.476 212.876 415.708L218.367 411.718C220.731 410 219.516 406.261 216.594 406.261H209.806C208.499 406.261 207.341 405.42 206.937 404.177L204.84 397.721C203.937 394.942 200.005 394.942 199.102 397.721L197.004 404.177Z" fill="#494949"/>
<path d="M206 425.596C206 420.848 202.151 417 197.404 417H74.5954C69.8482 417 65.9999 420.848 65.9999 425.596V548.404C65.9999 553.152 69.8482 557 74.5954 557H197.404C202.152 557 206 553.152 206 548.404L206 425.596Z" fill="#FEBD59"/>
<path fill-rule="evenodd" clip-rule="evenodd" d="M197.404 425.596H74.5954L74.5954 548.404H197.404L197.404 425.596ZM197.404 417C202.151 417 206 420.848 206 425.596L206 548.404C206 553.152 202.152 557 197.404 557H74.5954C69.8482 557 65.9999 553.152 65.9999 548.404V425.596C65.9999 420.848 69.8482 417 74.5954 417H197.404Z" fill="#494949"/>
<path d="M139.319 472.3C137.862 469.777 134.22 469.777 132.763 472.3L115.904 501.501C114.447 504.024 116.268 507.179 119.182 507.179H152.9C155.814 507.179 157.635 504.024 156.178 501.501L139.319 472.3Z" fill="#C9B1FD"/>
<path fill-rule="evenodd" clip-rule="evenodd" d="M109.554 497.835L126.413 468.634C130.692 461.223 141.39 461.223 145.669 468.634L162.528 497.835C166.807 505.246 161.458 514.511 152.9 514.511H119.182C110.624 514.511 105.275 505.246 109.554 497.835ZM132.763 472.3C134.22 469.777 137.862 469.777 139.319 472.3L156.178 501.501C157.635 504.024 155.814 507.179 152.9 507.179H119.182C116.268 507.179 114.447 504.024 115.904 501.501L132.763 472.3Z" fill="#494949"/>
<path d="M140 501.596C140 496.849 136.152 493 131.404 493H8.59552C3.84835 493 0 496.849 0 501.596L0 624.405C0 629.152 3.84834 633 8.59552 633H131.404C136.152 633 140 629.152 140 624.405V501.596Z" fill="#BBCB69"/>
<path fill-rule="evenodd" clip-rule="evenodd" d="M131.404 501.596H8.59552L8.59552 624.405H131.404V501.596ZM131.404 493C136.152 493 140 496.849 140 501.596V624.405C140 629.152 136.152 633 131.404 633H8.59552C3.84834 633 0 629.152 0 624.405L0 501.596C0 496.849 3.84835 493 8.59552 493H131.404Z" fill="#494949"/>
<path d="M58.5869 563C58.5869 569.303 63.6967 574.413 70 574.413C76.3032 574.413 81.413 569.303 81.413 563C81.413 556.697 76.3032 551.587 70 551.587C63.6967 551.587 58.5869 556.697 58.5869 563Z" fill="#03989E"/>
<path fill-rule="evenodd" clip-rule="evenodd" d="M70 584.885C57.9136 584.885 48.1156 575.087 48.1156 563C48.1156 550.914 57.9136 541.116 70 541.116C82.0864 541.116 91.8844 550.914 91.8844 563C91.8844 575.087 82.0864 584.885 70 584.885ZM70 574.413C63.6967 574.413 58.5869 569.303 58.5869 563C58.5869 556.697 63.6967 551.587 70 551.587C76.3032 551.587 81.413 556.697 81.413 563C81.413 569.303 76.3032 574.413 70 574.413Z" fill="#494949"/>
<path d="M338 425.596C338 420.848 334.152 417 329.404 417H206.596C201.848 417 198 420.848 198 425.596V548.404C198 553.152 201.848 557 206.596 557H329.404C334.152 557 338 553.152 338 548.404V425.596Z" fill="#03989E"/>
<path fill-rule="evenodd" clip-rule="evenodd" d="M329.404 425.596H206.596V548.404H329.404V425.596ZM329.404 417C334.152 417 338 420.848 338 425.596V548.404C338 553.152 334.152 557 329.404 557H206.596C201.848 557 198 553.152 198 548.404V425.596C198 420.848 201.848 417 206.596 417H329.404Z" fill="#494949"/>
<path d="M256.587 487C256.587 493.303 261.697 498.413 268 498.413C274.303 498.413 279.413 493.303 279.413 487C279.413 480.697 274.303 475.587 268 475.587C261.697 475.587 256.587 480.697 256.587 487Z" fill="#FAD5CD"/>
<path fill-rule="evenodd" clip-rule="evenodd" d="M268 508.884C255.914 508.884 246.116 499.086 246.116 487C246.116 474.914 255.914 465.116 268 465.116C280.086 465.116 289.884 474.914 289.884 487C289.884 499.086 280.086 508.884 268 508.884ZM268 498.413C261.697 498.413 256.587 493.303 256.587 487C256.587 480.697 261.697 475.587 268 475.587C274.303 475.587 279.413 480.697 279.413 487C279.413 493.303 274.303 498.413 268 498.413Z" fill="#494949"/>
<path d="M404 501.596C404 496.848 400.152 493 395.404 493H272.595C267.848 493 264 496.848 264 501.596V624.404C264 629.152 267.848 633 272.595 633H395.404C400.152 633 404 629.152 404 624.404V501.596Z" fill="#FAD5CD"/>
<path fill-rule="evenodd" clip-rule="evenodd" d="M395.404 501.596H272.595V624.404H395.404V501.596ZM395.404 493C400.152 493 404 496.848 404 501.596V624.404C404 629.152 400.152 633 395.404 633H272.595C267.848 633 264 629.152 264 624.404V501.596C264 496.848 267.848 493 272.595 493H395.404Z" fill="#494949"/>
<path d="M336.84 546.721C335.937 543.942 332.005 543.942 331.102 546.721L329.004 553.177C328.6 554.42 327.442 555.261 326.135 555.261H319.347C316.425 555.261 315.21 559 317.574 560.718L323.066 564.708C324.123 565.476 324.565 566.838 324.162 568.081L322.064 574.537C321.161 577.316 324.342 579.627 326.706 577.909L332.198 573.919C333.255 573.151 334.687 573.151 335.744 573.919L341.235 577.909C343.6 579.627 346.78 577.316 345.877 574.537L343.78 568.081C343.376 566.838 343.818 565.476 344.876 564.708L350.367 560.718C352.731 559 351.516 555.261 348.594 555.261H341.806C340.499 555.261 339.341 554.42 338.937 553.177L336.84 546.721Z" fill="#ECEAC1"/>
<path fill-rule="evenodd" clip-rule="evenodd" d="M323.289 548.327L324.507 544.578C327.486 535.41 340.456 535.41 343.435 544.578L344.653 548.327H348.594C358.234 548.327 362.242 560.662 354.443 566.328L351.255 568.645L352.473 572.394C355.452 581.562 344.958 589.185 337.159 583.519L333.971 581.203L330.782 583.519C322.983 589.186 312.49 581.562 315.469 572.394L316.687 568.645L313.498 566.328C305.699 560.662 309.707 548.327 319.347 548.327H323.289ZM329.004 553.177C328.6 554.42 327.442 555.261 326.135 555.261H319.347C316.425 555.261 315.21 559 317.574 560.718L323.066 564.708C324.123 565.476 324.565 566.838 324.162 568.081L322.064 574.537C321.161 577.316 324.342 579.627 326.706 577.909L332.198 573.919C333.255 573.151 334.687 573.151 335.744 573.919L341.235 577.909C343.6 579.627 346.78 577.316 345.877 574.537L343.78 568.081C343.376 566.838 343.818 565.476 344.876 564.708L350.367 560.718C352.731 559 351.516 555.261 348.594 555.261H341.806C340.499 555.261 339.341 554.42 338.937 553.177L336.84 546.721C335.937 543.942 332.005 543.942 331.102 546.721L329.004 553.177Z" fill="#494949"/>
<path d="M272 501.596C272 496.848 268.151 493 263.404 493H140.595C135.848 493 132 496.848 132 501.596V624.404C132 629.152 135.848 633 140.595 633H263.404C268.152 633 272 629.152 272 624.404L272 501.596Z" fill="#C9B1FD"/>
<path fill-rule="evenodd" clip-rule="evenodd" d="M263.404 501.596H140.595V624.404H263.404L263.404 501.596ZM263.404 493C268.151 493 272 496.848 272 501.596L272 624.404C272 629.152 268.152 633 263.404 633H140.595C135.848 633 132 629.152 132 624.404V501.596C132 496.848 135.848 493 140.595 493H263.404Z" fill="#494949"/>
<path d="M205.693 548.678C204.236 546.154 200.594 546.154 199.137 548.678L182.278 577.878C180.821 580.402 182.642 583.556 185.556 583.556H219.274C222.188 583.556 224.009 580.402 222.552 577.878L205.693 548.678Z" fill="#E7595B"/>
<path fill-rule="evenodd" clip-rule="evenodd" d="M175.928 574.212L192.787 545.012C197.066 537.6 207.764 537.6 212.043 545.012L228.902 574.212C233.181 581.624 227.832 590.889 219.274 590.889H185.556C176.998 590.889 171.649 581.624 175.928 574.212ZM199.137 548.678C200.594 546.154 204.236 546.154 205.693 548.678L222.552 577.878C224.009 580.402 222.188 583.556 219.274 583.556H185.556C182.642 583.556 180.821 580.402 182.278 577.878L199.137 548.678Z" fill="#494949"/>
</svg>
