<svg width="197" height="197" viewBox="0 0 197 197" fill="none" xmlns="http://www.w3.org/2000/svg">
<path fill-rule="evenodd" clip-rule="evenodd" d="M98.4281 153.221C128.689 153.221 153.221 128.689 153.221 98.4281C153.221 68.1668 128.689 43.6351 98.4281 43.6351C68.1668 43.6351 43.6351 68.1668 43.6351 98.4281C43.6351 128.689 68.1668 153.221 98.4281 153.221ZM98.4281 166.919C136.255 166.919 166.919 136.255 166.919 98.4281C166.919 60.6015 136.255 29.9369 98.4281 29.9369C60.6015 29.9369 29.9369 60.6015 29.9369 98.4281C29.9369 136.255 60.6015 166.919 98.4281 166.919Z" fill="#E7595B"/>
<path fill-rule="evenodd" clip-rule="evenodd" d="M98.4281 0.828125C102.211 0.828125 105.277 3.89458 105.277 7.67725V95.0036L189.179 95.0036C192.962 95.0036 196.028 98.07 196.028 101.853C196.028 105.635 192.962 108.702 189.179 108.702L105.277 108.702V189.179C105.277 192.962 102.211 196.028 98.4281 196.028C94.6455 196.028 91.579 192.962 91.579 189.179V108.702L7.67725 108.702C3.89458 108.702 0.828125 105.635 0.828125 101.853C0.828125 98.07 3.89458 95.0035 7.67725 95.0035L91.579 95.0036V7.67725C91.579 3.89458 94.6455 0.828125 98.4281 0.828125Z" fill="#E7595B"/>
</svg>
